<?xml version="1.0" encoding="UTF-8"?>
<svg width="102px" height="20px" viewBox="0 0 102 20" version="1.1" xmlns="http://www.w3.org/2000/svg" xmlns:xlink="http://www.w3.org/1999/xlink">
    {%- comment -%}Auto-disabled. Yoast plugin is taking care of SEO output.{%- endcomment -%}
{%- if disabled_by_yoast_seo -%}
<title>amazon_logo</title>
{%- comment -%} End Yoast auto-disable. {%- endcomment -%}
{%- endif -%}
    <defs>
        <polygon id="path-1" points="0 0 34.5511039 0 34.5511039 11.6787437 0 11.6787437"></polygon>
        <polygon id="path-3" points="0 0 36.6284195 0 36.6284195 11.7390899 0 11.7390899"></polygon>
    </defs>
    <g id="PC" stroke="none" stroke-width="1" fill="none" fill-rule="evenodd">
        <g id="Listing-增加amazon-button、支付方式等" transform="translate(-1383.000000, -1793.000000)">
            <g id="编组-25" transform="translate(1088.000000, 1659.000000)">
                <g id="编组-28" transform="translate(24.000000, 30.000000)">
                    <g id="button/big备份-3" transform="translate(0.000000, 77.000000)">
                        <g id="编组-30" transform="translate(220.000000, 0.000000)">
                            <g id="编组-7" transform="translate(51.000000, 3.000000)">
                                <g id="amazon_logo" transform="translate(0.000000, 24.000000)">
                                    <path d="M41.0426066,15.6408584 C37.1976575,18.4864512 31.6229577,20 26.8228702,20 C20.0950806,20 14.0371193,17.5062327 9.45217611,13.3544584 C9.09228572,13.0287285 9.41337579,12.5832382 9.84598774,12.835807 C14.7922153,15.7224073 20.908958,17.4607982 27.2266723,17.4607982 C31.4884344,17.4607982 36.1732826,16.5737785 40.4838355,14.7403248 C41.1339151,14.4635243 41.6789783,15.1699713 41.0426066,15.6408584" id="Fill-1" fill="#EC912D"></path>
                                    <path d="M42.6429455,13.8092686 C42.1508552,13.1776136 39.3916181,13.5098674 38.1523312,13.6585195 C37.7768742,13.703721 37.7185576,13.3749621 38.057073,13.1366062 C40.2580037,11.5862439 43.8643424,12.0340642 44.2834788,12.5527156 C44.7061002,13.0764929 44.1731186,16.7026259 42.1101962,18.4330949 C41.7928235,18.6994105 41.4912498,18.5575153 41.6318138,18.2056898 C42.0957913,17.0432676 43.1350358,14.4409236 42.6429455,13.8092686" id="Fill-2" fill="#EC912D"></path>
                                    <path d="M38.23969,2.18458026 L38.23969,0.678254386 C38.2406194,0.448985298 38.4130136,0.296139239 38.6204908,0.296605233 L45.3531594,0.295906242 C45.5683037,0.295906242 45.7411626,0.452946248 45.7416273,0.67639041 L45.7411626,1.968359 C45.7395363,2.18504625 45.5576162,2.46790466 45.2342028,2.91665696 L41.7468207,7.91001654 C43.0414039,7.87972693 44.4107996,8.07381346 45.587123,8.73692304 C45.8522198,8.88627414 45.923315,9.10785433 45.9442254,9.32500757 L45.9442254,10.9322212 C45.9442254,11.1538013 45.7025947,11.4100981 45.4486501,11.2768238 C43.3762018,10.1882616 40.6262582,10.0689671 38.3349483,11.2898716 C38.1007524,11.414991 37.8556366,11.1624222 37.8556366,10.9408421 L37.8556366,9.41284746 C37.8556366,9.16843356 37.8602833,8.75020387 38.1060961,8.37740861 L42.1466731,2.56436543 L38.6286226,2.56389944 C38.4137106,2.56389944 38.2410841,2.41012139 38.23969,2.18458026" id="Fill-3" fill="#FFFFFF"></path>
                                    <path d="M13.680714,11.5934668 L11.6326611,11.5934668 C11.4377302,11.5806519 11.2818319,11.4336308 11.2662653,11.2463012 L11.2676593,0.703884061 C11.2676593,0.493021739 11.444468,0.324331881 11.662865,0.324331881 L13.5703538,0.323865887 C13.7699315,0.334117757 13.9302442,0.485565833 13.9427904,0.677788392 L13.9427904,2.05433491 L13.981126,2.05433491 C14.4783277,0.723222815 15.4151115,0.102052704 16.6769351,0.102052704 C17.9578103,0.102052704 18.7610001,0.723222815 19.3346408,2.05433491 C19.8316102,0.723222815 20.9596075,0.102052704 22.1642761,0.102052704 C23.0246209,0.102052704 23.9614047,0.456907197 24.5350453,1.25562105 C25.1851249,2.14287379 25.051531,3.42971644 25.051531,4.56115007 L25.0499047,11.2139146 C25.0499047,11.4245439 24.8728637,11.5934668 24.6549314,11.5934668 L22.6089696,11.5934668 C22.4033511,11.5801859 22.2411797,11.416855 22.2411797,11.2148466 L22.2407151,5.62594655 C22.2407151,5.18232018 22.2790507,4.07302127 22.1833278,3.65152963 C22.0304498,2.94158764 21.5715838,2.74190918 20.9788915,2.74190918 C20.4819221,2.74190918 19.9654364,3.07462895 19.7551712,3.60726019 C19.544906,4.13965843 19.56419,5.02691116 19.56419,5.62594655 L19.56419,11.2139146 C19.56419,11.4245439 19.387149,11.5934668 19.1689843,11.5934668 L17.1232549,11.5934668 C16.9176364,11.5801859 16.7554651,11.416855 16.7554651,11.2148466 L16.753374,5.62594655 C16.753374,4.45024348 16.9445876,2.71977446 15.4915504,2.71977446 C14.0192293,2.71977446 14.0766166,4.40574105 14.0766166,5.62594655 L14.0759196,11.2139146 C14.0761519,11.4245439 13.899111,11.5934668 13.680714,11.5934668" id="Fill-4" fill="#FFFFFF"></path>
                                    <path d="M51.5563315,2.25378038 C50.0456748,2.25378038 49.9501739,4.31696917 49.9501739,5.60357883 C49.9501739,6.89042149 49.9311325,9.64141755 51.5372799,9.64141755 C53.1243756,9.64141755 53.2005822,7.42281973 53.2005822,6.06957292 C53.2005822,5.18232018 53.1624789,4.11729071 52.8948264,3.27430742 C52.6650449,2.54223071 52.2061788,2.25378038 51.5563315,2.25378038 Z M51.5372799,0.102052704 C54.5774127,0.102052704 56.2214311,2.71977446 56.2214311,6.0474382 C56.2214311,9.26396235 54.4054832,11.8155129 51.5372799,11.8155129 C48.5545343,11.8155129 46.9293353,9.19755819 46.9293353,5.93653161 C46.9293353,2.65313731 48.573586,0.102052704 51.5372799,0.102052704 L51.5372799,0.102052704 Z" id="Fill-5" fill="#FFFFFF"></path>
                                    <path d="M60.1639618,11.5934668 L58.1233437,11.5934668 C57.91819,11.5801859 57.7557862,11.416855 57.7557862,11.2148466 L57.7525335,0.66846851 C57.7697265,0.475779958 57.939565,0.324331881 58.1458805,0.324331881 L60.0459344,0.323865887 C60.2246018,0.332952772 60.3721359,0.455509215 60.4097746,0.619073138 L60.4097746,2.23164566 L60.4483425,2.23164566 C61.0219832,0.789626972 61.8247084,0.102052704 63.2396422,0.102052704 C64.157142,0.102052704 65.0560548,0.434772478 65.6296954,1.34439293 C66.1652328,2.18737622 66.1652328,3.60726019 66.1652328,4.62755423 L66.1652328,11.261213 C66.1419991,11.4483096 65.9749486,11.5934668 65.7725828,11.5934668 L63.7191863,11.5934668 C63.5295991,11.5811179 63.3767212,11.4415527 63.3544168,11.261213 L63.3544168,5.53717468 C63.3544168,4.38360633 63.4882431,2.69763974 62.0733092,2.69763974 C61.5761075,2.69763974 61.1172415,3.03035951 60.888157,3.54062303 C60.6014528,4.18392786 60.5628848,4.82723269 60.5628848,5.53717468 L60.5628848,11.2139146 C60.5591674,11.4245439 60.3821264,11.5934668 60.1639618,11.5934668" id="Fill-6" fill="#FFFFFF"></path>
                                    <g id="编组" transform="translate(67.448896, 0.038445)">
                                        <mask id="mask-2" fill="white">
                                            <use xlink:href="#path-1"></use>
                                        </mask>
                                        <g id="Clip-8"></g>
                                        <path d="M0,10.7185629 C0,10.1880286 0.451663603,9.75791607 1.00834364,9.75791607 C1.56525602,9.75791607 2.01622261,10.1880286 2.01622261,10.7185629 C2.01622261,11.2488641 1.56525602,11.6787437 1.00834364,11.6787437 C0.451663603,11.6787437 0,11.2488641 0,10.7185629" id="Fill-7" fill="#FFFFFF" mask="url(#mask-2)"></path>
                                        <path d="M21.7009956,11.5578182 C21.4884071,11.5512943 21.3188009,11.3851674 21.3188009,11.178732 L21.3188009,0.634916937 C21.3334381,0.448985298 21.4898011,0.30079918 21.685429,0.28821734 L22.4372724,0.287984343 C22.6442848,0.287984343 22.8141234,0.439665416 22.8308517,0.635149934 L22.8308517,2.17246441 C23.3654597,0.95435588 24.3614894,0 25.6207573,0 L25.6995196,0.0011649852 L25.7754939,0 C27.1109684,0 28.0884112,0.988140451 28.4513219,2.42363522 C29.0172955,1.00631422 30.0837234,0 31.4898284,0 L31.5630146,0.0011649852 L31.6450297,0 C32.6389684,0 33.5950362,0.64330483 34.0924702,1.61932943 C34.5701556,2.5510846 34.5512079,3.79342482 34.5512079,4.83608658 L34.5506393,11.179198 C34.5512079,11.3812065 34.3887002,11.5445374 34.1830817,11.5578182 L33.2832396,11.5578182 C33.0894703,11.5517603 32.930784,11.4126611 32.9047622,11.2304574 L32.9047622,4.83608658 C32.9047622,4.08187516 32.9428655,3.2831613 32.6371097,2.59535404 C32.3243838,1.89146998 31.7291358,1.45413453 31.0888143,1.42174794 C30.3736803,1.45739649 29.7173276,1.97767888 29.2930798,2.68412591 C28.7387231,3.59374636 28.7582394,4.41459493 28.7582394,5.47939141 L28.7582394,11.2341853 C28.7326823,11.4089331 28.5811985,11.5454694 28.3937023,11.5578182 L27.4985069,11.5578182 C27.2861507,11.5512943 27.1158475,11.3851674 27.1158475,11.178732 L27.1118977,4.41459493 C27.1118977,3.79342482 27.0737944,3.06134812 26.7868579,2.50658217 C26.4564744,1.86840327 25.863085,1.45460053 25.2413506,1.42174794 C24.5963824,1.45786249 23.9439794,1.95228221 23.5573702,2.52894988 C23.0604009,3.26102658 22.9646779,4.17064703 22.9646779,5.1024022 L22.9642132,11.179198 C22.9642132,11.3812065 22.8018095,11.5445374 22.5966557,11.5578182 L21.7009956,11.5578182" id="Fill-9" fill="#FFFFFF" mask="url(#mask-2)"></path>
                                    </g>
                                    <path d="M83.1916031,10.3746592 C84.1476708,10.3434376 84.9018375,9.74952818 85.3483897,8.75672779 C85.7496361,7.86947506 85.8263074,6.84894802 85.8263074,5.87292341 C85.8263074,4.80789394 85.7115328,3.69882802 85.2145634,2.78920758 C84.7694053,1.99352268 84.0015307,1.48978308 83.1883503,1.45949346 C82.2831644,1.49281204 81.4762572,2.10652625 81.0673436,3.0552902 C80.7044329,3.87613877 80.5896583,4.96330297 80.5896583,5.87292341 C80.5896583,6.89321746 80.7234845,8.06892052 81.1442473,8.95640625 C81.5524638,9.79705958 82.3407841,10.3446026 83.1916031,10.3746592 Z M82.9773881,11.8183089 C80.0713139,11.8183089 78.771387,8.84549966 78.771387,5.87292341 C78.771387,2.74470514 80.3010954,0.0384445118 83.225989,0.0384445118 L83.3014986,0.0391435029 L83.3807256,0.0384445118 C86.2296449,0.0384445118 87.6445787,2.92224889 87.6445787,5.89482514 C87.6445787,9.04517813 86.076767,11.8183089 83.1321247,11.8183089 L83.0568475,11.8173769 L82.9773881,11.8183089 L82.9773881,11.8183089 Z" id="Fill-10" fill="#FFFFFF"></path>
                                    <path d="M73.8957899,10.3306228 C75.2003635,10.2896153 75.8852937,9.24112864 76.1696745,7.8818239 C76.2252031,7.71243505 76.3548473,7.58195671 76.5451315,7.58195671 L77.408032,7.57822876 C77.6113271,7.58894662 77.7983586,7.74505464 77.7830243,7.93541322 C77.384566,10.2474429 75.9928659,11.8183089 74.0094028,11.8183089 L73.9294788,11.8173769 L73.8546662,11.8183089 C70.9676436,11.8183089 69.7246394,8.91213682 69.7246394,5.96146229 C69.7246394,3.03315548 70.9866953,0.0384445118 73.8737179,0.0384445118 L73.9499245,0.0391435029 L74.0284545,0.0384445118 C76.0318985,0.0384445118 77.4617019,1.58670985 77.7721045,3.90013747 C77.7721045,4.07372026 77.6113271,4.22400336 77.423134,4.24590508 L76.5186451,4.23518721 C76.3309166,4.20839255 76.2066161,4.04459563 76.178271,3.86285794 C75.960571,2.57135534 75.2208092,1.54453738 73.9884925,1.5037629 C72.0252428,1.5666721 71.466704,3.98960833 71.466704,5.8505557 C71.466704,7.64696288 71.9327725,10.2656166 73.8957899,10.3306228" id="Fill-11" fill="#FFFFFF"></path>
                                    <g id="编组">
                                        <mask id="mask-4" fill="white">
                                            <use xlink:href="#path-3"></use>
                                        </mask>
                                        <g id="Clip-13"></g>
                                        <path d="M34.9377131,11.5671381 C34.8020282,11.6889955 34.6066325,11.6971504 34.4537546,11.6149025 C33.7734712,11.0477877 33.6514941,10.785666 33.2797545,10.2460449 C32.1552423,11.3944873 31.3587902,11.7390899 29.9027327,11.7390899 C28.1783257,11.7390899 26.8368104,10.6719635 26.8368104,8.53771057 C26.8368104,6.87015075 27.7373496,5.73638715 29.0212452,5.18045621 C30.1325142,4.69116242 31.6847594,4.60239055 32.8726997,4.46888325 L32.8726997,4.20210163 C32.8726997,3.71304084 32.9110353,3.13497519 32.6236342,2.71255155 C32.3743363,2.33463035 31.8954892,2.17898833 31.4737971,2.17898833 C30.6926793,2.17898833 29.9982233,2.58044223 29.8274554,3.41247466 C29.7921402,3.59747431 29.6573846,3.78060999 29.4717471,3.78992987 L27.4864254,3.57440761 C27.3189102,3.53666208 27.1325757,3.4017568 27.1809019,3.14522706 C27.6372122,0.729746732 29.8121212,0 31.7614307,0 C32.7576928,0 34.06064,0.266781612 34.8461722,1.02285701 C35.8426667,1.95670915 35.7467114,3.20161234 35.7467114,4.55788811 L35.7467114,7.75810247 C35.7467114,8.72061325 36.1456345,9.14303688 36.5199298,9.6616883 C36.6507356,9.84855192 36.6802425,10.0708311 36.513192,10.2073674 C36.0947526,10.5589599 35.3515058,11.2066917 34.9423599,11.571565 L34.9377131,11.5671381 Z M32.8726997,6.5588667 C32.8726997,7.35921154 32.8917513,8.02628207 32.4893432,8.73785503 C32.1636064,9.31592069 31.6464237,9.67147417 31.071389,9.67147417 C30.2858568,9.67147417 29.8260614,9.0710408 29.8260614,8.18192409 C29.8260614,6.43258231 31.3908527,6.11430835 32.8726997,6.11430835 L32.8726997,6.5588667 L32.8726997,6.5588667 Z" id="Fill-12" fill="#FFFFFF" mask="url(#mask-4)"></path>
                                        <path d="M8.08673013,11.5671381 C7.95104518,11.6889955 7.75541722,11.6971504 7.60277165,11.6149025 C6.92225586,11.0477877 6.80051114,10.785666 6.42853921,10.2460449 C5.30449163,11.3944873 4.50803955,11.7390899 3.0517497,11.7390899 C1.32711034,11.7390899 -0.0139402347,10.6719635 -0.0139402347,8.53771057 C-0.0139402347,6.87015075 0.886598924,5.73638715 2.1702622,5.18045621 C3.28176358,4.69116242 4.83377637,4.60239055 6.02148436,4.46888325 L6.02148436,4.20210163 C6.02148436,3.71304084 6.06005234,3.13497519 5.77265117,2.71255155 C5.52358565,2.33463035 5.04427391,2.17898833 4.62304649,2.17898833 C3.84192867,2.17898833 3.14700797,2.58044223 2.97670477,3.41247466 C2.94115718,3.59747431 2.80663391,3.78060999 2.62076412,3.78992987 L0.635674701,3.57440761 C0.46792721,3.53666208 0.281360403,3.4017568 0.329918887,3.14522706 C0.785996898,0.729746732 2.96113818,0 4.91021532,0 C5.90670976,0 7.20965703,0.266781612 7.99542159,1.02285701 C8.99168369,1.95670915 8.89596075,3.20161234 8.89596075,4.55788811 L8.89596075,7.75810247 C8.89596075,8.72061325 9.29441912,9.14303688 9.66894676,9.6616883 C9.79952029,9.84855192 9.82902712,10.0708311 9.66220898,10.2073674 C9.24400194,10.5589599 8.50029042,11.2066917 8.09160921,11.571565 L8.08673013,11.5671381 Z M6.02148436,6.5588667 C6.02148436,7.35921154 6.04076835,8.02628207 5.63836025,8.73785503 C5.31285577,9.31592069 4.79544072,9.67147417 4.22063838,9.67147417 C3.43510616,9.67147417 2.97507841,9.0710408 2.97507841,8.18192409 C2.97507841,6.43258231 4.54010209,6.11430835 6.02148436,6.11430835 L6.02148436,6.5588667 L6.02148436,6.5588667 Z" id="Fill-14" fill="#FFFFFF" mask="url(#mask-4)"></path>
                                    </g>
                                </g>
                            </g>
                        </g>
                    </g>
                </g>
            </g>
        </g>
    </g>
</svg>