<svg width="17" height="16" viewBox="0 0 17 16" fill="none" xmlns="http://www.w3.org/2000/svg">
<path fill-rule="evenodd" clip-rule="evenodd" d="M11 3.5C11 2.83696 10.7366 2.20107 10.2678 1.73223C9.79893 1.26339 9.16304 1 8.5 1C7.83696 1 7.20107 1.26339 6.73223 1.73223C6.26339 2.20107 6 2.83696 6 3.5V4H11V3.5ZM12 3.5V4H15.5V14C15.5 14.5304 15.2893 15.0391 14.9142 15.4142C14.5391 15.7893 14.0304 16 13.5 16H3.5C2.96957 16 2.46086 15.7893 2.08579 15.4142C1.71071 15.0391 1.5 14.5304 1.5 14V4H5V3.5C5 2.57174 5.36875 1.6815 6.02513 1.02513C6.6815 0.368749 7.57174 0 8.5 0C9.42826 0 10.3185 0.368749 10.9749 1.02513C11.6313 1.6815 12 2.57174 12 3.5V3.5ZM11.354 8.854C11.4479 8.76011 11.5006 8.63278 11.5006 8.5C11.5006 8.36722 11.4479 8.23989 11.354 8.146C11.2601 8.05211 11.1328 7.99937 11 7.99937C10.8672 7.99937 10.7399 8.05211 10.646 8.146L8 10.793L6.854 9.646C6.80751 9.59951 6.75232 9.56264 6.69158 9.53748C6.63084 9.51232 6.56574 9.49937 6.5 9.49937C6.43426 9.49937 6.36916 9.51232 6.30842 9.53748C6.24768 9.56264 6.19249 9.59951 6.146 9.646C6.09951 9.69249 6.06264 9.74768 6.03748 9.80842C6.01232 9.86916 5.99937 9.93426 5.99937 10C5.99937 10.0657 6.01232 10.1308 6.03748 10.1916C6.06264 10.2523 6.09951 10.3075 6.146 10.354L7.646 11.854C7.69245 11.9006 7.74762 11.9375 7.80837 11.9627C7.86911 11.9879 7.93423 12.0009 8 12.0009C8.06577 12.0009 8.13089 11.9879 8.19163 11.9627C8.25238 11.9375 8.30755 11.9006 8.354 11.854L11.354 8.854V8.854Z" fill="white"/>
<path d="M1 1C0.867392 1 0.740215 1.05268 0.646447 1.14645C0.552678 1.24021 0.5 1.36739 0.5 1.5C0.5 1.63261 0.552678 1.75979 0.646447 1.85355C0.740215 1.94732 0.867392 2 1 2H2.11L2.511 3.607L4.009 11.592C4.03045 11.7066 4.09126 11.8101 4.18091 11.8846C4.27057 11.9591 4.38343 11.9999 4.5 12H5.5C4.96957 12 4.46086 12.2107 4.08579 12.5858C3.71071 12.9609 3.5 13.4696 3.5 14C3.5 14.5304 3.71071 15.0391 4.08579 15.4142C4.46086 15.7893 4.96957 16 5.5 16C6.03043 16 6.53914 15.7893 6.91421 15.4142C7.28929 15.0391 7.5 14.5304 7.5 14C7.5 13.4696 7.28929 12.9609 6.91421 12.5858C6.53914 12.2107 6.03043 12 5.5 12H12.5C11.9696 12 11.4609 12.2107 11.0858 12.5858C10.7107 12.9609 10.5 13.4696 10.5 14C10.5 14.5304 10.7107 15.0391 11.0858 15.4142C11.4609 15.7893 11.9696 16 12.5 16C13.0304 16 13.5391 15.7893 13.9142 15.4142C14.2893 15.0391 14.5 14.5304 14.5 14C14.5 13.4696 14.2893 12.9609 13.9142 12.5858C13.5391 12.2107 13.0304 12 12.5 12H13.5C13.6166 11.9999 13.7294 11.9591 13.8191 11.8846C13.9087 11.8101 13.9696 11.7066 13.991 11.592L15.491 3.592C15.5045 3.51984 15.502 3.44558 15.4835 3.37452C15.4651 3.30345 15.4313 3.23731 15.3844 3.1808C15.3375 3.12429 15.2788 3.0788 15.2124 3.04755C15.1459 3.0163 15.0734 3.00007 15 3H3.39L2.985 1.379C2.95801 1.27078 2.89561 1.1747 2.80773 1.10602C2.71985 1.03735 2.61153 1.00003 2.5 1H1ZM6.5 14C6.5 14.2652 6.39464 14.5196 6.20711 14.7071C6.01957 14.8946 5.76522 15 5.5 15C5.23478 15 4.98043 14.8946 4.79289 14.7071C4.60536 14.5196 4.5 14.2652 4.5 14C4.5 13.7348 4.60536 13.4804 4.79289 13.2929C4.98043 13.1054 5.23478 13 5.5 13C5.76522 13 6.01957 13.1054 6.20711 13.2929C6.39464 13.4804 6.5 13.7348 6.5 14ZM13.5 14C13.5 14.2652 13.3946 14.5196 13.2071 14.7071C13.0196 14.8946 12.7652 15 12.5 15C12.2348 15 11.9804 14.8946 11.7929 14.7071C11.6054 14.5196 11.5 14.2652 11.5 14C11.5 13.7348 11.6054 13.4804 11.7929 13.2929C11.9804 13.1054 12.2348 13 12.5 13C12.7652 13 13.0196 13.1054 13.2071 13.2929C13.3946 13.4804 13.5 13.7348 13.5 14ZM11.854 6.354L8.854 9.354C8.80755 9.40056 8.75238 9.43751 8.69163 9.46271C8.63089 9.48792 8.56577 9.50089 8.5 9.50089C8.43423 9.50089 8.36911 9.48792 8.30837 9.46271C8.24762 9.43751 8.19245 9.40056 8.146 9.354L6.646 7.854C6.59951 7.80751 6.56264 7.75232 6.53748 7.69158C6.51232 7.63084 6.49937 7.56574 6.49937 7.5C6.49937 7.43426 6.51232 7.36916 6.53748 7.30842C6.56264 7.24768 6.59951 7.19249 6.646 7.146C6.69249 7.09951 6.74768 7.06264 6.80842 7.03748C6.86916 7.01232 6.93426 6.99937 7 6.99937C7.06574 6.99937 7.13084 7.01232 7.19158 7.03748C7.25232 7.06264 7.30751 7.09951 7.354 7.146L8.5 8.293L11.146 5.646C11.1925 5.59951 11.2477 5.56264 11.3084 5.53748C11.3692 5.51232 11.4343 5.49937 11.5 5.49937C11.5657 5.49937 11.6308 5.51232 11.6916 5.53748C11.7523 5.56264 11.8075 5.59951 11.854 5.646C11.9005 5.69249 11.9374 5.74768 11.9625 5.80842C11.9877 5.86916 12.0006 5.93426 12.0006 6C12.0006 6.06574 11.9877 6.13084 11.9625 6.19158C11.9374 6.25232 11.9005 6.30751 11.854 6.354Z" fill="white"/>
</svg>
