<svg width="13" height="9" viewBox="0 0 13 9" fill="none" xmlns="http://www.w3.org/2000/svg">
<path d="M12.7342 0H11.1708C10.8308 0 10.5074 0.138688 10.3074 0.376439L5.06725 6.54665L2.69384 3.75024C2.49384 3.51532 2.17383 3.37381 1.83048 3.37381H0.267097C0.0504238 3.37381 -0.0762469 3.58325 0.0504238 3.73326L4.20389 8.62415C4.30201 8.74043 4.43136 8.83518 4.58121 8.90054C4.73107 8.9659 4.89711 9 5.06559 9C5.23406 9 5.4001 8.9659 5.54996 8.90054C5.69981 8.83518 5.82916 8.74043 5.92728 8.62415L12.9475 0.359458C13.0775 0.209448 12.9508 0 12.7342 0Z" fill="white"/>
</svg>
