<svg width="16" height="18" viewBox="0 0 16 18" fill="none" xmlns="http://www.w3.org/2000/svg">
<path d="M6.3335 6.5C9.09492 6.5 11.3335 5.38071 11.3335 4C11.3335 2.61929 9.09492 1.5 6.3335 1.5C3.57207 1.5 1.3335 2.61929 1.3335 4C1.3335 5.38071 3.57207 6.5 6.3335 6.5Z" stroke="#919191" stroke-width="1.25" stroke-linecap="round" stroke-linejoin="round"/>
<path d="M1.3335 8.1665C1.3335 9.54722 3.57207 10.6665 6.3335 10.6665" stroke="#919191" stroke-width="1.25" stroke-linecap="round" stroke-linejoin="round"/>
<path d="M1.3335 12.3335C1.3335 13.7142 3.57207 14.8335 6.3335 14.8335" stroke="#919191" stroke-width="1.25" stroke-linecap="round" stroke-linejoin="round"/>
<path d="M1.3335 4V12.3333" stroke="#919191" stroke-width="1.25" stroke-linecap="round" stroke-linejoin="round"/>
<path d="M11.3335 4V6.08333" stroke="#919191" stroke-width="1.25" stroke-linecap="round" stroke-linejoin="round"/>
<path d="M11.3335 11.2915C13.0329 11.2915 14.4104 10.5919 14.4104 9.729C14.4104 8.86606 13.0329 8.1665 11.3335 8.1665C9.63418 8.1665 8.25659 8.86606 8.25659 9.729C8.25659 10.5919 9.63418 11.2915 11.3335 11.2915Z" stroke="#919191" stroke-width="1.25" stroke-linecap="round" stroke-linejoin="round"/>
<path d="M8.25659 12.333C8.25659 13.196 9.63418 13.8955 11.3335 13.8955C13.0329 13.8955 14.4104 13.196 14.4104 12.333" stroke="#919191" stroke-width="1.25" stroke-linecap="round" stroke-linejoin="round"/>
<path d="M8.25659 14.9375C8.25659 15.8004 9.63418 16.5 11.3335 16.5C13.0329 16.5 14.4104 15.8004 14.4104 14.9375" stroke="#919191" stroke-width="1.25" stroke-linecap="round" stroke-linejoin="round"/>
<path d="M8.25659 9.729V14.9373" stroke="#919191" stroke-width="1.25" stroke-linecap="round" stroke-linejoin="round"/>
<path d="M14.4105 9.729V14.9373" stroke="#919191" stroke-width="1.25" stroke-linecap="round" stroke-linejoin="round"/>
</svg>
