<svg width="18" height="20" viewBox="0 0 18 20" fill="none" xmlns="http://www.w3.org/2000/svg">
<path d="M7 7C10.3137 7 13 5.65685 13 4C13 2.34315 10.3137 1 7 1C3.68629 1 1 2.34315 1 4C1 5.65685 3.68629 7 7 7Z" stroke="#F7A40A" stroke-width="1.5" stroke-linecap="round" stroke-linejoin="round"/>
<path d="M1 9C1 10.6569 3.68629 12 7 12" stroke="#F7A40A" stroke-width="1.5" stroke-linecap="round" stroke-linejoin="round"/>
<path d="M1 14C1 15.6569 3.68629 17 7 17" stroke="#F7A40A" stroke-width="1.5" stroke-linecap="round" stroke-linejoin="round"/>
<path d="M1 4V14" stroke="#F7A40A" stroke-width="1.5" stroke-linecap="round" stroke-linejoin="round"/>
<path d="M13 4V6.5" stroke="#F7A40A" stroke-width="1.5" stroke-linecap="round" stroke-linejoin="round"/>
<path d="M12.9999 12.75C15.0391 12.75 16.6922 11.9105 16.6922 10.875C16.6922 9.83947 15.0391 9 12.9999 9C10.9607 9 9.30762 9.83947 9.30762 10.875C9.30762 11.9105 10.9607 12.75 12.9999 12.75Z" stroke="#F7A40A" stroke-width="1.5" stroke-linecap="round" stroke-linejoin="round"/>
<path d="M9.30762 14C9.30762 15.0355 10.9607 15.875 12.9999 15.875C15.0391 15.875 16.6922 15.0355 16.6922 14" stroke="#F7A40A" stroke-width="1.5" stroke-linecap="round" stroke-linejoin="round"/>
<path d="M9.30762 17.125C9.30762 18.1605 10.9607 19 12.9999 19C15.0391 19 16.6922 18.1605 16.6922 17.125" stroke="#F7A40A" stroke-width="1.5" stroke-linecap="round" stroke-linejoin="round"/>
<path d="M9.30762 10.875V17.125" stroke="#F7A40A" stroke-width="1.5" stroke-linecap="round" stroke-linejoin="round"/>
<path d="M16.6921 10.875V17.125" stroke="#F7A40A" stroke-width="1.5" stroke-linecap="round" stroke-linejoin="round"/>
</svg>
