<svg width="10" height="6" viewBox="0 0 10 6" fill="none" xmlns="http://www.w3.org/2000/svg">
<path fill-rule="evenodd" clip-rule="evenodd" d="M5 1.85048L8.77976 5.78323C8.91865 5.92774 9.0873 6 9.28571 6C9.48413 6 9.65278 5.92774 9.79167 5.78323C9.93056 5.63872 10 5.46325 10 5.2568C10 5.05036 9.93056 4.87488 9.79167 4.73037L5.47619 0.240226C5.15873 -0.0900848 4.83135 -0.0797628 4.49405 0.271193L0.208332 4.73037C0.0694422 4.87488 6.02249e-08 5.05036 6.26867e-08 5.2568C6.51485e-08 5.46325 0.0694422 5.63872 0.208332 5.78323C0.347222 5.92774 0.515869 6 0.714286 6C0.912702 6 1.08135 5.92774 1.22024 5.78323L5 1.85048Z" fill="#919191"/>
</svg>
