<svg width="16" height="16" viewBox="0 0 16 16" fill="none" xmlns="http://www.w3.org/2000/svg">
<g clip-path="url(#clip0_4853_8137)">
<rect x="2.31055" y="5.68884" width="3.37778" height="0.533333" rx="0.266667" transform="rotate(90 2.31055 5.68884)" fill="#757575"/>
<path d="M10.5 10.0001H9V4.00012H12.0686C12.2827 4.00012 12.4854 4.09093 12.6206 4.24742L14.8398 6.8148C14.9434 6.93467 15 7.08457 15 7.23921V9.77622C15 9.89988 14.8937 10.0001 14.7626 10.0001H13.3813" stroke="#757575" stroke-width="0.7"/>
<path d="M13.5 10.5001C13.5 11.3285 12.8284 12.0001 12 12.0001C11.1716 12.0001 10.5 11.3285 10.5 10.5001C10.5 9.67169 11.1716 9.00012 12 9.00012C12.8284 9.00012 13.5 9.67169 13.5 10.5001Z" stroke="#757575" stroke-width="0.7"/>
<path d="M7 10.5001C7 11.3285 6.32843 12.0001 5.5 12.0001C4.67157 12.0001 4 11.3285 4 10.5001C4 9.67169 4.67157 9.00012 5.5 9.00012C6.32843 9.00012 7 9.67169 7 10.5001Z" stroke="#757575" stroke-width="0.7"/>
<path fill-rule="evenodd" clip-rule="evenodd" d="M2.50039 2.65002C2.03095 2.65002 1.65039 3.03058 1.65039 3.50002V9.50002C1.65039 9.96947 2.03095 10.35 2.50039 10.35H4.0079C4.03356 10.0918 4.12469 9.85286 4.26447 9.65002H2.50039C2.41755 9.65002 2.35039 9.58287 2.35039 9.50002V3.50002C2.35039 3.41718 2.41755 3.35002 2.50039 3.35002H8.50039C8.58323 3.35002 8.65039 3.41718 8.65039 3.50002V9.50002C8.65039 9.58287 8.58323 9.65002 8.50039 9.65002H6.73651C6.87628 9.85286 6.96742 10.0918 6.99307 10.35H8.50039C8.96983 10.35 9.35039 9.96947 9.35039 9.50002V3.50002C9.35039 3.03058 8.96983 2.65002 8.50039 2.65002H2.50039Z" fill="#757575"/>
</g>
<defs>
<clipPath id="clip0_4853_8137">
<rect width="16" height="16" fill="white"/>
</clipPath>
</defs>
</svg>
